<svg width="1440" height="403" viewBox="0 0 1440 403" fill="none" xmlns="http://www.w3.org/2000/svg">
<path d="M118.408 342.5L68.9684 228.333H118.408H167.847L217.286 342.5L167.847 456.667H118.408H68.9684L118.408 342.5Z" fill="white" fill-opacity="0.06"/>
<path d="M298.367 342.5L248.927 228.333H298.367H347.806L397.245 342.5L347.806 456.667H298.367H248.927L298.367 342.5Z" fill="white" fill-opacity="0.06"/>
<path d="M478.326 342.5L428.887 228.333H478.326H527.765L577.205 342.5L527.765 456.667H478.326H428.887L478.326 342.5Z" fill="white" fill-opacity="0.06"/>
<path d="M658.285 342.5L608.846 228.333H658.285H707.724L757.164 342.5L707.724 456.667H658.285H608.846L658.285 342.5Z" fill="white" fill-opacity="0.06"/>
<path d="M838.244 342.5L788.805 228.333H838.244H887.683L937.123 342.5L887.683 456.667H838.244H788.805L838.244 342.5Z" fill="white" fill-opacity="0.06"/>
<path d="M1018.2 342.5L968.764 228.333H1018.2H1067.64L1117.08 342.5L1067.64 456.667H1018.2H968.764L1018.2 342.5Z" fill="white" fill-opacity="0.06"/>
<path d="M1198.16 342.5L1148.72 228.333H1198.16H1247.6L1297.04 342.5L1247.6 456.667H1198.16H1148.72L1198.16 342.5Z" fill="white" fill-opacity="0.06"/>
<path d="M1378.12 342.5L1328.68 228.333H1378.12H1427.56L1477 342.5L1427.56 456.667H1378.12H1328.68L1378.12 342.5Z" fill="white" fill-opacity="0.06"/>
<path d="M27.4393 114.167L-22 0H27.4393H76.8786L126.318 114.167L76.8786 228.333H27.4393H-22L27.4393 114.167Z" fill="white" fill-opacity="0.06"/>
<path d="M207.398 114.167L157.959 0H207.398H256.838L306.277 114.167L256.838 228.333H207.398H157.959L207.398 114.167Z" fill="white" fill-opacity="0.06"/>
<path d="M387.357 114.167L337.918 0H387.357H436.797L486.236 114.167L436.797 228.333H387.357H337.918L387.357 114.167Z" fill="white" fill-opacity="0.06"/>
<path d="M567.317 114.167L517.877 0H567.317H616.756L666.195 114.167L616.756 228.333H567.317H517.877L567.317 114.167Z" fill="white" fill-opacity="0.06"/>
<path d="M747.276 114.167L697.836 0H747.276H796.715L846.154 114.167L796.715 228.333H747.276H697.836L747.276 114.167Z" fill="white" fill-opacity="0.06"/>
<path d="M927.235 114.167L877.796 0H927.235H976.674L1026.11 114.167L976.674 228.333H927.235H877.796L927.235 114.167Z" fill="white" fill-opacity="0.06"/>
<path d="M1107.19 114.167L1057.75 0H1107.19H1156.63L1206.07 114.167L1156.63 228.333H1107.19H1057.75L1107.19 114.167Z" fill="white" fill-opacity="0.06"/>
<path d="M1287.15 114.167L1237.71 0H1287.15H1336.59L1386.03 114.167L1336.59 228.333H1287.15H1237.71L1287.15 114.167Z" fill="white" fill-opacity="0.06"/>
</svg>
