<svg width="160" height="160" viewBox="0 0 160 160" fill="none" xmlns="http://www.w3.org/2000/svg">
<path d="M74.5616 22.8641V47.7483C74.5615 48.3013 74.3762 48.8384 74.0353 49.2736C73.6945 49.7087 73.2177 50.0169 72.6814 50.1487C66.0239 51.7733 60.1057 55.5934 55.8788 60.9945C51.6519 66.3956 49.3621 73.0636 49.3778 79.9258C49.3778 80.2679 49.3778 80.633 49.4008 81.0757C49.4123 81.4073 49.3571 81.7379 49.2384 82.0477C49.1197 82.3575 48.9399 82.6401 48.7098 82.8789C48.4797 83.1176 48.204 83.3076 47.8991 83.4373C47.5941 83.5671 47.2662 83.6341 46.9349 83.6343H22.4859C21.8401 83.6344 21.2198 83.3811 20.7583 82.9285C20.2968 82.476 20.0307 81.8604 20.0172 81.2137C20 80.7854 20 80.357 20 79.9258C20.0013 65.4215 25.2417 51.4072 34.754 40.4698C44.2663 29.5323 57.4083 22.4101 71.7542 20.4176C72.1035 20.3696 72.459 20.397 72.7968 20.4981C73.1346 20.5992 73.4469 20.7716 73.7126 21.0036C73.9783 21.2357 74.1913 21.5221 74.3373 21.8435C74.4832 22.1649 74.5588 22.5139 74.5588 22.867L74.5616 22.8641Z" fill="#3563E9" fill-opacity="0.25"/>
<path d="M137.282 94.2566C137.513 94.5619 137.669 94.9166 137.74 95.2927C137.81 95.6688 137.792 96.0562 137.687 96.4242C134.113 108.835 126.666 119.774 116.436 127.642C105.971 135.657 93.1628 140 79.9881 140C66.8133 140 54.0048 135.657 43.54 127.642C33.3104 119.774 25.8635 108.835 22.2889 96.4242C22.1819 96.0556 22.1621 95.667 22.2311 95.2894C22.3001 94.9118 22.4559 94.5554 22.6863 94.2486C22.9166 93.9417 23.2152 93.6928 23.5583 93.5216C23.9013 93.3503 24.2795 93.2614 24.6629 93.2619H50.9174C51.3612 93.2622 51.7967 93.3822 52.1781 93.6093C52.5595 93.8365 52.8727 94.1624 53.0847 94.5527C55.7161 99.3989 59.604 103.445 64.3387 106.264C69.0735 109.082 74.4798 110.57 79.9881 110.57C85.4963 110.57 90.9026 109.082 95.6374 106.264C100.372 103.445 104.26 99.3989 106.891 94.5527C107.103 94.1624 107.417 93.8365 107.798 93.6093C108.179 93.3822 108.615 93.2622 109.059 93.2619H135.313C135.696 93.2635 136.073 93.3542 136.415 93.5268C136.757 93.6994 137.054 93.9493 137.282 94.2566Z" fill="#3563E9" fill-opacity="0.75"/>
<path d="M110.588 81.0699C110.605 80.6301 110.611 80.265 110.611 79.92C110.602 72.4661 107.886 65.2699 102.968 59.6747C98.05 54.0796 91.2672 50.4677 83.8853 49.5134C83.2891 49.4378 82.7409 49.147 82.3435 48.6956C81.9461 48.2441 81.7268 47.663 81.7266 47.0612V22.4731C81.7265 22.1334 81.7964 21.7972 81.9318 21.4857C82.0671 21.1742 82.2652 20.894 82.5135 20.6625C82.7619 20.4311 83.0552 20.2534 83.3752 20.1405C83.6952 20.0276 84.035 19.982 84.3733 20.0065C99.4433 21.087 113.545 27.8437 123.841 38.9169C134.241 50.03 140.019 64.6952 140 79.9258C140 80.357 140 80.7882 139.983 81.2137C139.969 81.8619 139.702 82.4788 139.239 82.9315C138.775 83.3843 138.153 83.6367 137.505 83.6343H113.054C112.722 83.6341 112.393 83.567 112.088 83.4368C111.783 83.3067 111.507 83.1163 111.276 82.8769C111.046 82.6375 110.867 82.3541 110.748 82.0437C110.63 81.7332 110.575 81.402 110.588 81.0699Z" fill="#3563E9" fill-opacity="0.5"/>
</svg>
