<svg width="160" height="160" viewBox="0 0 118 121" fill="none" xmlns="http://www.w3.org/2000/svg">
<g filter="url(#filter0_biii_3_164)">
<path d="M55.8393 7.27002C44.7968 7.27002 34.0021 10.575 24.8201 16.7671C15.6381 22.9592 8.48107 31.7603 4.25374 42.0579C0.0264146 52.3555 -1.08134 63.6871 1.07051 74.6201C3.22237 85.5531 8.53722 95.5967 16.3431 103.481C24.149 111.365 34.0955 116.736 44.9251 118.915C55.7546 121.094 66.981 119.982 77.1849 115.721C87.3887 111.46 96.112 104.241 102.252 94.976C108.391 85.7111 111.672 74.8166 111.679 63.6699H55.8393V7.27002Z" fill="#3563E9" fill-opacity="0.75"/>
<path d="M101.661 18.9642L62.1607 58.9999H118C118 58.9999 118 58.9716 118 58.9603C118.009 51.5317 116.57 44.1744 113.766 37.3108C110.962 30.4472 106.849 24.2124 101.661 18.9642Z" fill="#3563E9" fill-opacity="0.8"/>
<path d="M60.0536 4.8281e-05V55.8393L99.0357 16.3623C93.9239 11.1673 87.8482 7.04721 81.1581 4.23913C74.4679 1.43104 67.2956 -0.00961391 60.0536 4.8281e-05Z" fill="#3563E9" fill-opacity="0.75"/>
</g>
<defs>
<filter id="filter0_biii_3_164" x="-36" y="-36" width="190" height="192.002" filterUnits="userSpaceOnUse" color-interpolation-filters="sRGB">
<feFlood flood-opacity="0" result="BackgroundImageFix"/>
<feGaussianBlur in="BackgroundImageFix" stdDeviation="18"/>
<feComposite in2="SourceAlpha" operator="in" result="effect1_backgroundBlur_3_164"/>
<feBlend mode="normal" in="SourceGraphic" in2="effect1_backgroundBlur_3_164" result="shape"/>
<feColorMatrix in="SourceAlpha" type="matrix" values="0 0 0 0 0 0 0 0 0 0 0 0 0 0 0 0 0 0 127 0" result="hardAlpha"/>
<feOffset dy="4"/>
<feGaussianBlur stdDeviation="18"/>
<feComposite in2="hardAlpha" operator="arithmetic" k2="-1" k3="1"/>
<feColorMatrix type="matrix" values="0 0 0 0 0.211765 0 0 0 0 1 0 0 0 0 0.858824 0 0 0 0.76 0"/>
<feBlend mode="normal" in2="shape" result="effect2_innerShadow_3_164"/>
<feColorMatrix in="SourceAlpha" type="matrix" values="0 0 0 0 0 0 0 0 0 0 0 0 0 0 0 0 0 0 127 0" result="hardAlpha"/>
<feOffset dy="4"/>
<feGaussianBlur stdDeviation="2"/>
<feComposite in2="hardAlpha" operator="arithmetic" k2="-1" k3="1"/>
<feColorMatrix type="matrix" values="0 0 0 0 0.211765 0 0 0 0 1 0 0 0 0 0.858824 0 0 0 0.1 0"/>
<feBlend mode="normal" in2="effect2_innerShadow_3_164" result="effect3_innerShadow_3_164"/>
<feColorMatrix in="SourceAlpha" type="matrix" values="0 0 0 0 0 0 0 0 0 0 0 0 0 0 0 0 0 0 127 0" result="hardAlpha"/>
<feOffset dy="1"/>
<feGaussianBlur stdDeviation="0.5"/>
<feComposite in2="hardAlpha" operator="arithmetic" k2="-1" k3="1"/>
<feColorMatrix type="matrix" values="0 0 0 0 0.211765 0 0 0 0 1 0 0 0 0 0.858824 0 0 0 0.05 0"/>
<feBlend mode="normal" in2="effect3_innerShadow_3_164" result="effect4_innerShadow_3_164"/>
</filter>
</defs>
</svg>
